<mxfile host="app.diagrams.net" agent="Mozilla/5.0 (Windows NT 10.0; Win64; x64) AppleWebKit/537.36 (KHTML, like Gecko) Chrome/136.0.0.0 Safari/537.36" version="27.0.3">
  <diagram name="Page-1" id="lvZPzRQ9xBgecxqEHYSW">
    <mxGraphModel dx="5243" dy="2294" grid="1" gridSize="10" guides="1" tooltips="1" connect="1" arrows="1" fold="1" page="1" pageScale="1" pageWidth="1169" pageHeight="827" background="none" math="0" shadow="0">
      <root>
        <mxCell id="0" />
        <mxCell id="1" parent="0" />
        <mxCell id="jiWG33mtaCor1uyyTD07-164" value="" style="rounded=0;whiteSpace=wrap;html=1;fillColor=none;" vertex="1" parent="1">
          <mxGeometry x="-613.98" y="35.94" width="753.98" height="289.83" as="geometry" />
        </mxCell>
        <mxCell id="jiWG33mtaCor1uyyTD07-9" value="" style="rounded=0;whiteSpace=wrap;html=1;fillColor=none;" vertex="1" parent="1">
          <mxGeometry x="-640" y="350" width="1139.12" height="970" as="geometry" />
        </mxCell>
        <mxCell id="jiWG33mtaCor1uyyTD07-136" value="" style="rounded=0;whiteSpace=wrap;html=1;fillColor=none;" vertex="1" parent="1">
          <mxGeometry x="-640" y="468.13" width="410" height="231.87" as="geometry" />
        </mxCell>
        <mxCell id="jiWG33mtaCor1uyyTD07-7" value="" style="edgeStyle=none;curved=1;rounded=0;orthogonalLoop=1;jettySize=auto;html=1;fontSize=12;startSize=8;endSize=8;" edge="1" parent="1" source="jiWG33mtaCor1uyyTD07-3" target="jiWG33mtaCor1uyyTD07-6">
          <mxGeometry relative="1" as="geometry" />
        </mxCell>
        <mxCell id="jiWG33mtaCor1uyyTD07-3" value="" style="image;aspect=fixed;perimeter=ellipsePerimeter;html=1;align=center;shadow=0;dashed=0;spacingTop=3;image=img/lib/active_directory/internet_cloud.svg;" vertex="1" parent="1">
          <mxGeometry x="520.38" y="185.94" width="118.89" height="74.9" as="geometry" />
        </mxCell>
        <mxCell id="jiWG33mtaCor1uyyTD07-8" value="" style="edgeStyle=none;curved=1;rounded=0;orthogonalLoop=1;jettySize=auto;html=1;fontSize=12;startSize=8;endSize=8;" edge="1" parent="1" source="jiWG33mtaCor1uyyTD07-6" target="jiWG33mtaCor1uyyTD07-2">
          <mxGeometry relative="1" as="geometry" />
        </mxCell>
        <mxCell id="jiWG33mtaCor1uyyTD07-6" value="" style="sketch=0;points=[[0.015,0.015,0],[0.985,0.015,0],[0.985,0.985,0],[0.015,0.985,0],[0.25,0,0],[0.5,0,0],[0.75,0,0],[1,0.25,0],[1,0.5,0],[1,0.75,0],[0.75,1,0],[0.5,1,0],[0.25,1,0],[0,0.75,0],[0,0.5,0],[0,0.25,0]];verticalLabelPosition=bottom;html=1;verticalAlign=top;aspect=fixed;align=center;pointerEvents=1;shape=mxgraph.cisco19.rect;prIcon=router_with_firewall2;fillColor=#FAFAFA;strokeColor=#005073;" vertex="1" parent="1">
          <mxGeometry x="169.99999999999997" y="390" width="128" height="100" as="geometry" />
        </mxCell>
        <mxCell id="jiWG33mtaCor1uyyTD07-25" style="edgeStyle=none;curved=1;rounded=0;orthogonalLoop=1;jettySize=auto;html=1;fontSize=12;startSize=8;endSize=8;" edge="1" parent="1" source="jiWG33mtaCor1uyyTD07-2" target="jiWG33mtaCor1uyyTD07-19">
          <mxGeometry relative="1" as="geometry" />
        </mxCell>
        <mxCell id="jiWG33mtaCor1uyyTD07-28" style="edgeStyle=none;curved=1;rounded=0;orthogonalLoop=1;jettySize=auto;html=1;fontSize=12;startSize=8;endSize=8;" edge="1" parent="1" source="jiWG33mtaCor1uyyTD07-2" target="jiWG33mtaCor1uyyTD07-26">
          <mxGeometry relative="1" as="geometry" />
        </mxCell>
        <mxCell id="jiWG33mtaCor1uyyTD07-30" style="edgeStyle=none;curved=1;rounded=0;orthogonalLoop=1;jettySize=auto;html=1;fontSize=12;startSize=8;endSize=8;" edge="1" parent="1" source="jiWG33mtaCor1uyyTD07-2" target="jiWG33mtaCor1uyyTD07-29">
          <mxGeometry relative="1" as="geometry" />
        </mxCell>
        <mxCell id="jiWG33mtaCor1uyyTD07-33" style="edgeStyle=none;curved=1;rounded=0;orthogonalLoop=1;jettySize=auto;html=1;fontSize=12;startSize=8;endSize=8;" edge="1" parent="1" source="jiWG33mtaCor1uyyTD07-2" target="jiWG33mtaCor1uyyTD07-16">
          <mxGeometry relative="1" as="geometry" />
        </mxCell>
        <mxCell id="jiWG33mtaCor1uyyTD07-134" style="edgeStyle=orthogonalEdgeStyle;rounded=0;orthogonalLoop=1;jettySize=auto;html=1;fontSize=12;startSize=8;endSize=8;entryX=0;entryY=1;entryDx=0;entryDy=0;entryPerimeter=0;" edge="1" parent="1" source="jiWG33mtaCor1uyyTD07-2" target="jiWG33mtaCor1uyyTD07-16">
          <mxGeometry relative="1" as="geometry">
            <Array as="points">
              <mxPoint x="250" y="539" />
            </Array>
          </mxGeometry>
        </mxCell>
        <mxCell id="jiWG33mtaCor1uyyTD07-2" value="" style="shape=mxgraph.cisco.switches.layer_3_switch;sketch=0;html=1;pointerEvents=1;dashed=0;fillColor=#036897;strokeColor=#ffffff;strokeWidth=2;verticalLabelPosition=bottom;verticalAlign=top;align=center;outlineConnect=0;" vertex="1" parent="1">
          <mxGeometry x="139.9981692844759" y="548.1225" width="127.86063925806711" height="138.0625" as="geometry" />
        </mxCell>
        <mxCell id="jiWG33mtaCor1uyyTD07-11" value="" style="rounded=0;whiteSpace=wrap;html=1;fillColor=none;" vertex="1" parent="1">
          <mxGeometry x="654.87" y="350" width="1139.12" height="970" as="geometry" />
        </mxCell>
        <mxCell id="jiWG33mtaCor1uyyTD07-13" value="Floor 1" style="text;html=1;align=center;verticalAlign=middle;whiteSpace=wrap;rounded=0;fontFamily=Poppins;fontSource=https%3A%2F%2Ffonts.googleapis.com%2Fcss%3Ffamily%3DPoppins;fontSize=31;" vertex="1" parent="1">
          <mxGeometry x="-659.9963055219939" y="369.0025" width="174.35541717009153" height="44.0625" as="geometry" />
        </mxCell>
        <mxCell id="jiWG33mtaCor1uyyTD07-15" value="Floor 2" style="text;html=1;align=center;verticalAlign=middle;whiteSpace=wrap;rounded=0;fontFamily=Poppins;fontSource=https%3A%2F%2Ffonts.googleapis.com%2Fcss%3Ffamily%3DPoppins;fontSize=31;" vertex="1" parent="1">
          <mxGeometry x="1619.639339777172" y="400.0025" width="174.35541717009153" height="44.0625" as="geometry" />
        </mxCell>
        <mxCell id="jiWG33mtaCor1uyyTD07-101" style="edgeStyle=none;curved=1;rounded=0;orthogonalLoop=1;jettySize=auto;html=1;fontSize=12;startSize=8;endSize=8;" edge="1" parent="1" source="jiWG33mtaCor1uyyTD07-16" target="jiWG33mtaCor1uyyTD07-90">
          <mxGeometry relative="1" as="geometry" />
        </mxCell>
        <mxCell id="jiWG33mtaCor1uyyTD07-16" value="" style="shape=mxgraph.cisco.switches.layer_2_remote_switch;sketch=0;html=1;pointerEvents=1;dashed=0;fillColor=#036897;strokeColor=#ffffff;strokeWidth=2;verticalLabelPosition=bottom;verticalAlign=top;align=center;outlineConnect=0;" vertex="1" parent="1">
          <mxGeometry x="740.0044207947503" y="465.19" width="117.39931422786164" height="73.4375" as="geometry" />
        </mxCell>
        <mxCell id="jiWG33mtaCor1uyyTD07-21" value="" style="rounded=0;whiteSpace=wrap;html=1;fillColor=none;" vertex="1" parent="1">
          <mxGeometry x="-640" y="760" width="499.82" height="560" as="geometry" />
        </mxCell>
        <mxCell id="jiWG33mtaCor1uyyTD07-17" value="" style="shape=mxgraph.cisco.servers.fileserver;sketch=0;html=1;pointerEvents=1;dashed=0;fillColor=#036897;strokeColor=#ffffff;strokeWidth=2;verticalLabelPosition=bottom;verticalAlign=top;align=center;outlineConnect=0;" vertex="1" parent="1">
          <mxGeometry x="-552.65" y="530" width="87.01" height="140" as="geometry" />
        </mxCell>
        <mxCell id="jiWG33mtaCor1uyyTD07-18" style="edgeStyle=orthogonalEdgeStyle;rounded=0;orthogonalLoop=1;jettySize=auto;html=1;fontSize=12;startSize=8;endSize=8;" edge="1" parent="1" source="jiWG33mtaCor1uyyTD07-2" target="jiWG33mtaCor1uyyTD07-17">
          <mxGeometry relative="1" as="geometry">
            <Array as="points">
              <mxPoint x="-506" y="510" />
            </Array>
          </mxGeometry>
        </mxCell>
        <mxCell id="jiWG33mtaCor1uyyTD07-19" value="" style="shape=mxgraph.cisco.switches.workgroup_switch;sketch=0;html=1;pointerEvents=1;dashed=0;fillColor=#036897;strokeColor=#ffffff;strokeWidth=2;verticalLabelPosition=bottom;verticalAlign=top;align=center;outlineConnect=0;" vertex="1" parent="1">
          <mxGeometry x="-400" y="985" width="86.23" height="54.06" as="geometry" />
        </mxCell>
        <mxCell id="jiWG33mtaCor1uyyTD07-22" value="" style="rounded=0;whiteSpace=wrap;html=1;fillColor=none;" vertex="1" parent="1">
          <mxGeometry x="-0.7" y="760" width="499.82" height="560" as="geometry" />
        </mxCell>
        <mxCell id="jiWG33mtaCor1uyyTD07-26" value="" style="sketch=0;pointerEvents=1;shadow=0;dashed=0;html=1;strokeColor=none;fillColor=#505050;labelPosition=center;verticalLabelPosition=bottom;verticalAlign=top;outlineConnect=0;align=center;shape=mxgraph.office.devices.phone_voip;" vertex="1" parent="1">
          <mxGeometry x="-400" y="530" width="130" height="131" as="geometry" />
        </mxCell>
        <mxCell id="jiWG33mtaCor1uyyTD07-29" value="" style="shape=mxgraph.cisco.switches.workgroup_switch;sketch=0;html=1;pointerEvents=1;dashed=0;fillColor=#036897;strokeColor=#ffffff;strokeWidth=2;verticalLabelPosition=bottom;verticalAlign=top;align=center;outlineConnect=0;" vertex="1" parent="1">
          <mxGeometry x="200" y="1000.0000000000001" width="88.9" height="58.12" as="geometry" />
        </mxCell>
        <mxCell id="jiWG33mtaCor1uyyTD07-31" value="ADMIN" style="text;html=1;align=center;verticalAlign=middle;whiteSpace=wrap;rounded=0;fontFamily=Poppins;fontSource=https%3A%2F%2Ffonts.googleapis.com%2Fcss%3Ffamily%3DPoppins;fontSize=31;" vertex="1" parent="1">
          <mxGeometry x="-659.9963055219939" y="770.0025" width="174.35541717009153" height="44.0625" as="geometry" />
        </mxCell>
        <mxCell id="jiWG33mtaCor1uyyTD07-32" value="SALES" style="text;html=1;align=center;verticalAlign=middle;whiteSpace=wrap;rounded=0;fontFamily=Poppins;fontSource=https%3A%2F%2Ffonts.googleapis.com%2Fcss%3Ffamily%3DPoppins;fontSize=31;" vertex="1" parent="1">
          <mxGeometry x="-22.176305521993974" y="770.0125" width="174.35541717009153" height="44.0625" as="geometry" />
        </mxCell>
        <mxCell id="jiWG33mtaCor1uyyTD07-45" style="edgeStyle=none;curved=1;rounded=0;orthogonalLoop=1;jettySize=auto;html=1;fontSize=12;startSize=8;endSize=8;entryX=0.16;entryY=0.23;entryDx=0;entryDy=0;entryPerimeter=0;" edge="1" parent="1" source="jiWG33mtaCor1uyyTD07-34" target="jiWG33mtaCor1uyyTD07-19">
          <mxGeometry relative="1" as="geometry" />
        </mxCell>
        <mxCell id="jiWG33mtaCor1uyyTD07-34" value="" style="fontColor=#0066CC;verticalAlign=top;verticalLabelPosition=bottom;labelPosition=center;align=center;html=1;outlineConnect=0;fillColor=#CCCCCC;strokeColor=#6881B3;gradientColor=none;gradientDirection=north;strokeWidth=2;shape=mxgraph.networks.pc;" vertex="1" parent="1">
          <mxGeometry x="-600" y="919.06" width="70" height="50" as="geometry" />
        </mxCell>
        <mxCell id="jiWG33mtaCor1uyyTD07-46" style="edgeStyle=none;curved=1;rounded=0;orthogonalLoop=1;jettySize=auto;html=1;fontSize=12;startSize=8;endSize=8;" edge="1" parent="1" source="jiWG33mtaCor1uyyTD07-35" target="jiWG33mtaCor1uyyTD07-19">
          <mxGeometry relative="1" as="geometry" />
        </mxCell>
        <mxCell id="jiWG33mtaCor1uyyTD07-35" value="" style="fontColor=#0066CC;verticalAlign=top;verticalLabelPosition=bottom;labelPosition=center;align=center;html=1;outlineConnect=0;fillColor=#CCCCCC;strokeColor=#6881B3;gradientColor=none;gradientDirection=north;strokeWidth=2;shape=mxgraph.networks.pc;" vertex="1" parent="1">
          <mxGeometry x="-600" y="985" width="70" height="50" as="geometry" />
        </mxCell>
        <mxCell id="jiWG33mtaCor1uyyTD07-47" style="edgeStyle=none;curved=1;rounded=0;orthogonalLoop=1;jettySize=auto;html=1;fontSize=12;startSize=8;endSize=8;" edge="1" parent="1" source="jiWG33mtaCor1uyyTD07-36" target="jiWG33mtaCor1uyyTD07-19">
          <mxGeometry relative="1" as="geometry" />
        </mxCell>
        <mxCell id="jiWG33mtaCor1uyyTD07-36" value="" style="fontColor=#0066CC;verticalAlign=top;verticalLabelPosition=bottom;labelPosition=center;align=center;html=1;outlineConnect=0;fillColor=#CCCCCC;strokeColor=#6881B3;gradientColor=none;gradientDirection=north;strokeWidth=2;shape=mxgraph.networks.pc;" vertex="1" parent="1">
          <mxGeometry x="-600" y="1050" width="70" height="50" as="geometry" />
        </mxCell>
        <mxCell id="jiWG33mtaCor1uyyTD07-48" style="edgeStyle=none;curved=1;rounded=0;orthogonalLoop=1;jettySize=auto;html=1;fontSize=12;startSize=8;endSize=8;" edge="1" parent="1" source="jiWG33mtaCor1uyyTD07-37" target="jiWG33mtaCor1uyyTD07-19">
          <mxGeometry relative="1" as="geometry" />
        </mxCell>
        <mxCell id="jiWG33mtaCor1uyyTD07-37" value="" style="fontColor=#0066CC;verticalAlign=top;verticalLabelPosition=bottom;labelPosition=center;align=center;html=1;outlineConnect=0;fillColor=#CCCCCC;strokeColor=#6881B3;gradientColor=none;gradientDirection=north;strokeWidth=2;shape=mxgraph.networks.pc;" vertex="1" parent="1">
          <mxGeometry x="-600" y="1125" width="70" height="50" as="geometry" />
        </mxCell>
        <mxCell id="jiWG33mtaCor1uyyTD07-49" style="edgeStyle=none;curved=1;rounded=0;orthogonalLoop=1;jettySize=auto;html=1;fontSize=12;startSize=8;endSize=8;" edge="1" parent="1" source="jiWG33mtaCor1uyyTD07-38" target="jiWG33mtaCor1uyyTD07-19">
          <mxGeometry relative="1" as="geometry" />
        </mxCell>
        <mxCell id="jiWG33mtaCor1uyyTD07-38" value="" style="fontColor=#0066CC;verticalAlign=top;verticalLabelPosition=bottom;labelPosition=center;align=center;html=1;outlineConnect=0;fillColor=#CCCCCC;strokeColor=#6881B3;gradientColor=none;gradientDirection=north;strokeWidth=2;shape=mxgraph.networks.pc;" vertex="1" parent="1">
          <mxGeometry x="-600" y="1205" width="70" height="50" as="geometry" />
        </mxCell>
        <mxCell id="jiWG33mtaCor1uyyTD07-50" style="edgeStyle=none;curved=1;rounded=0;orthogonalLoop=1;jettySize=auto;html=1;fontSize=12;startSize=8;endSize=8;" edge="1" parent="1" source="jiWG33mtaCor1uyyTD07-39" target="jiWG33mtaCor1uyyTD07-19">
          <mxGeometry relative="1" as="geometry" />
        </mxCell>
        <mxCell id="jiWG33mtaCor1uyyTD07-39" value="" style="fontColor=#0066CC;verticalAlign=top;verticalLabelPosition=bottom;labelPosition=center;align=center;html=1;outlineConnect=0;fillColor=#CCCCCC;strokeColor=#6881B3;gradientColor=none;gradientDirection=north;strokeWidth=2;shape=mxgraph.networks.pc;" vertex="1" parent="1">
          <mxGeometry x="-500" y="1205" width="70" height="50" as="geometry" />
        </mxCell>
        <mxCell id="jiWG33mtaCor1uyyTD07-51" style="edgeStyle=none;curved=1;rounded=0;orthogonalLoop=1;jettySize=auto;html=1;fontSize=12;startSize=8;endSize=8;" edge="1" parent="1" source="jiWG33mtaCor1uyyTD07-40" target="jiWG33mtaCor1uyyTD07-19">
          <mxGeometry relative="1" as="geometry" />
        </mxCell>
        <mxCell id="jiWG33mtaCor1uyyTD07-40" value="" style="fontColor=#0066CC;verticalAlign=top;verticalLabelPosition=bottom;labelPosition=center;align=center;html=1;outlineConnect=0;fillColor=#CCCCCC;strokeColor=#6881B3;gradientColor=none;gradientDirection=north;strokeWidth=2;shape=mxgraph.networks.pc;" vertex="1" parent="1">
          <mxGeometry x="-410" y="1205" width="70" height="50" as="geometry" />
        </mxCell>
        <mxCell id="jiWG33mtaCor1uyyTD07-52" style="edgeStyle=none;curved=1;rounded=0;orthogonalLoop=1;jettySize=auto;html=1;fontSize=12;startSize=8;endSize=8;" edge="1" parent="1" source="jiWG33mtaCor1uyyTD07-41" target="jiWG33mtaCor1uyyTD07-19">
          <mxGeometry relative="1" as="geometry" />
        </mxCell>
        <mxCell id="jiWG33mtaCor1uyyTD07-41" value="" style="fontColor=#0066CC;verticalAlign=top;verticalLabelPosition=bottom;labelPosition=center;align=center;html=1;outlineConnect=0;fillColor=#CCCCCC;strokeColor=#6881B3;gradientColor=none;gradientDirection=north;strokeWidth=2;shape=mxgraph.networks.pc;" vertex="1" parent="1">
          <mxGeometry x="-320" y="1205" width="70" height="50" as="geometry" />
        </mxCell>
        <mxCell id="jiWG33mtaCor1uyyTD07-53" style="edgeStyle=none;curved=1;rounded=0;orthogonalLoop=1;jettySize=auto;html=1;fontSize=12;startSize=8;endSize=8;" edge="1" parent="1" source="jiWG33mtaCor1uyyTD07-42" target="jiWG33mtaCor1uyyTD07-19">
          <mxGeometry relative="1" as="geometry" />
        </mxCell>
        <mxCell id="jiWG33mtaCor1uyyTD07-42" value="" style="fontColor=#0066CC;verticalAlign=top;verticalLabelPosition=bottom;labelPosition=center;align=center;html=1;outlineConnect=0;fillColor=#CCCCCC;strokeColor=#6881B3;gradientColor=none;gradientDirection=north;strokeWidth=2;shape=mxgraph.networks.pc;" vertex="1" parent="1">
          <mxGeometry x="-233.76999999999998" y="1205" width="70" height="50" as="geometry" />
        </mxCell>
        <mxCell id="jiWG33mtaCor1uyyTD07-44" style="edgeStyle=none;curved=1;rounded=0;orthogonalLoop=1;jettySize=auto;html=1;fontSize=12;startSize=8;endSize=8;entryX=0.5;entryY=0;entryDx=0;entryDy=0;entryPerimeter=0;" edge="1" parent="1" source="jiWG33mtaCor1uyyTD07-43" target="jiWG33mtaCor1uyyTD07-19">
          <mxGeometry relative="1" as="geometry" />
        </mxCell>
        <mxCell id="jiWG33mtaCor1uyyTD07-43" value="" style="fontColor=#0066CC;verticalAlign=top;verticalLabelPosition=bottom;labelPosition=center;align=center;html=1;outlineConnect=0;fillColor=#CCCCCC;strokeColor=#6881B3;gradientColor=none;gradientDirection=north;strokeWidth=2;shape=mxgraph.networks.pc;" vertex="1" parent="1">
          <mxGeometry x="-600" y="860" width="70" height="50" as="geometry" />
        </mxCell>
        <mxCell id="jiWG33mtaCor1uyyTD07-72" style="edgeStyle=none;curved=1;rounded=0;orthogonalLoop=1;jettySize=auto;html=1;fontSize=12;startSize=8;endSize=8;entryX=0;entryY=0.5;entryDx=0;entryDy=0;entryPerimeter=0;" edge="1" parent="1" source="jiWG33mtaCor1uyyTD07-54" target="jiWG33mtaCor1uyyTD07-29">
          <mxGeometry relative="1" as="geometry" />
        </mxCell>
        <mxCell id="jiWG33mtaCor1uyyTD07-54" value="" style="fontColor=#0066CC;verticalAlign=top;verticalLabelPosition=bottom;labelPosition=center;align=center;html=1;outlineConnect=0;fillColor=#CCCCCC;strokeColor=#6881B3;gradientColor=none;gradientDirection=north;strokeWidth=2;shape=mxgraph.networks.pc;" vertex="1" parent="1">
          <mxGeometry x="30.000000000000043" y="936.56" width="70" height="50" as="geometry" />
        </mxCell>
        <mxCell id="jiWG33mtaCor1uyyTD07-73" style="edgeStyle=none;curved=1;rounded=0;orthogonalLoop=1;jettySize=auto;html=1;fontSize=12;startSize=8;endSize=8;" edge="1" parent="1" source="jiWG33mtaCor1uyyTD07-55" target="jiWG33mtaCor1uyyTD07-29">
          <mxGeometry relative="1" as="geometry" />
        </mxCell>
        <mxCell id="jiWG33mtaCor1uyyTD07-55" value="" style="fontColor=#0066CC;verticalAlign=top;verticalLabelPosition=bottom;labelPosition=center;align=center;html=1;outlineConnect=0;fillColor=#CCCCCC;strokeColor=#6881B3;gradientColor=none;gradientDirection=north;strokeWidth=2;shape=mxgraph.networks.pc;" vertex="1" parent="1">
          <mxGeometry x="30.000000000000043" y="1002.5" width="70" height="50" as="geometry" />
        </mxCell>
        <mxCell id="jiWG33mtaCor1uyyTD07-74" style="edgeStyle=none;curved=1;rounded=0;orthogonalLoop=1;jettySize=auto;html=1;fontSize=12;startSize=8;endSize=8;" edge="1" parent="1" source="jiWG33mtaCor1uyyTD07-56" target="jiWG33mtaCor1uyyTD07-29">
          <mxGeometry relative="1" as="geometry" />
        </mxCell>
        <mxCell id="jiWG33mtaCor1uyyTD07-56" value="" style="fontColor=#0066CC;verticalAlign=top;verticalLabelPosition=bottom;labelPosition=center;align=center;html=1;outlineConnect=0;fillColor=#CCCCCC;strokeColor=#6881B3;gradientColor=none;gradientDirection=north;strokeWidth=2;shape=mxgraph.networks.pc;" vertex="1" parent="1">
          <mxGeometry x="30.000000000000043" y="1067.5" width="70" height="50" as="geometry" />
        </mxCell>
        <mxCell id="jiWG33mtaCor1uyyTD07-75" style="edgeStyle=none;curved=1;rounded=0;orthogonalLoop=1;jettySize=auto;html=1;fontSize=12;startSize=8;endSize=8;" edge="1" parent="1" source="jiWG33mtaCor1uyyTD07-57" target="jiWG33mtaCor1uyyTD07-29">
          <mxGeometry relative="1" as="geometry" />
        </mxCell>
        <mxCell id="jiWG33mtaCor1uyyTD07-57" value="" style="fontColor=#0066CC;verticalAlign=top;verticalLabelPosition=bottom;labelPosition=center;align=center;html=1;outlineConnect=0;fillColor=#CCCCCC;strokeColor=#6881B3;gradientColor=none;gradientDirection=north;strokeWidth=2;shape=mxgraph.networks.pc;" vertex="1" parent="1">
          <mxGeometry x="30.000000000000043" y="1142.5" width="70" height="50" as="geometry" />
        </mxCell>
        <mxCell id="jiWG33mtaCor1uyyTD07-76" style="edgeStyle=none;curved=1;rounded=0;orthogonalLoop=1;jettySize=auto;html=1;fontSize=12;startSize=8;endSize=8;" edge="1" parent="1" source="jiWG33mtaCor1uyyTD07-58" target="jiWG33mtaCor1uyyTD07-29">
          <mxGeometry relative="1" as="geometry" />
        </mxCell>
        <mxCell id="jiWG33mtaCor1uyyTD07-58" value="" style="fontColor=#0066CC;verticalAlign=top;verticalLabelPosition=bottom;labelPosition=center;align=center;html=1;outlineConnect=0;fillColor=#CCCCCC;strokeColor=#6881B3;gradientColor=none;gradientDirection=north;strokeWidth=2;shape=mxgraph.networks.pc;" vertex="1" parent="1">
          <mxGeometry x="30.000000000000043" y="1222.5" width="70" height="50" as="geometry" />
        </mxCell>
        <mxCell id="jiWG33mtaCor1uyyTD07-77" style="edgeStyle=none;curved=1;rounded=0;orthogonalLoop=1;jettySize=auto;html=1;fontSize=12;startSize=8;endSize=8;" edge="1" parent="1" source="jiWG33mtaCor1uyyTD07-59" target="jiWG33mtaCor1uyyTD07-29">
          <mxGeometry relative="1" as="geometry" />
        </mxCell>
        <mxCell id="jiWG33mtaCor1uyyTD07-59" value="" style="fontColor=#0066CC;verticalAlign=top;verticalLabelPosition=bottom;labelPosition=center;align=center;html=1;outlineConnect=0;fillColor=#CCCCCC;strokeColor=#6881B3;gradientColor=none;gradientDirection=north;strokeWidth=2;shape=mxgraph.networks.pc;" vertex="1" parent="1">
          <mxGeometry x="126.33000000000004" y="1222.5" width="70" height="50" as="geometry" />
        </mxCell>
        <mxCell id="jiWG33mtaCor1uyyTD07-78" style="edgeStyle=none;curved=1;rounded=0;orthogonalLoop=1;jettySize=auto;html=1;fontSize=12;startSize=8;endSize=8;" edge="1" parent="1" source="jiWG33mtaCor1uyyTD07-60" target="jiWG33mtaCor1uyyTD07-29">
          <mxGeometry relative="1" as="geometry" />
        </mxCell>
        <mxCell id="jiWG33mtaCor1uyyTD07-60" value="" style="fontColor=#0066CC;verticalAlign=top;verticalLabelPosition=bottom;labelPosition=center;align=center;html=1;outlineConnect=0;fillColor=#CCCCCC;strokeColor=#6881B3;gradientColor=none;gradientDirection=north;strokeWidth=2;shape=mxgraph.networks.pc;" vertex="1" parent="1">
          <mxGeometry x="216.33000000000004" y="1222.5" width="70" height="50" as="geometry" />
        </mxCell>
        <mxCell id="jiWG33mtaCor1uyyTD07-79" style="edgeStyle=none;curved=1;rounded=0;orthogonalLoop=1;jettySize=auto;html=1;fontSize=12;startSize=8;endSize=8;" edge="1" parent="1" source="jiWG33mtaCor1uyyTD07-61" target="jiWG33mtaCor1uyyTD07-29">
          <mxGeometry relative="1" as="geometry" />
        </mxCell>
        <mxCell id="jiWG33mtaCor1uyyTD07-61" value="" style="fontColor=#0066CC;verticalAlign=top;verticalLabelPosition=bottom;labelPosition=center;align=center;html=1;outlineConnect=0;fillColor=#CCCCCC;strokeColor=#6881B3;gradientColor=none;gradientDirection=north;strokeWidth=2;shape=mxgraph.networks.pc;" vertex="1" parent="1">
          <mxGeometry x="306.33000000000004" y="1222.5" width="70" height="50" as="geometry" />
        </mxCell>
        <mxCell id="jiWG33mtaCor1uyyTD07-80" style="edgeStyle=none;curved=1;rounded=0;orthogonalLoop=1;jettySize=auto;html=1;fontSize=12;startSize=8;endSize=8;" edge="1" parent="1" source="jiWG33mtaCor1uyyTD07-62" target="jiWG33mtaCor1uyyTD07-29">
          <mxGeometry relative="1" as="geometry" />
        </mxCell>
        <mxCell id="jiWG33mtaCor1uyyTD07-62" value="" style="fontColor=#0066CC;verticalAlign=top;verticalLabelPosition=bottom;labelPosition=center;align=center;html=1;outlineConnect=0;fillColor=#CCCCCC;strokeColor=#6881B3;gradientColor=none;gradientDirection=north;strokeWidth=2;shape=mxgraph.networks.pc;" vertex="1" parent="1">
          <mxGeometry x="392.56000000000006" y="1222.5" width="70" height="50" as="geometry" />
        </mxCell>
        <mxCell id="jiWG33mtaCor1uyyTD07-63" value="" style="fontColor=#0066CC;verticalAlign=top;verticalLabelPosition=bottom;labelPosition=center;align=center;html=1;outlineConnect=0;fillColor=#CCCCCC;strokeColor=#6881B3;gradientColor=none;gradientDirection=north;strokeWidth=2;shape=mxgraph.networks.pc;" vertex="1" parent="1">
          <mxGeometry x="30.000000000000043" y="877.5" width="70" height="50" as="geometry" />
        </mxCell>
        <mxCell id="jiWG33mtaCor1uyyTD07-84" style="edgeStyle=none;curved=1;rounded=0;orthogonalLoop=1;jettySize=auto;html=1;fontSize=12;startSize=8;endSize=8;" edge="1" parent="1" source="jiWG33mtaCor1uyyTD07-64" target="jiWG33mtaCor1uyyTD07-29">
          <mxGeometry relative="1" as="geometry" />
        </mxCell>
        <mxCell id="jiWG33mtaCor1uyyTD07-64" value="" style="fontColor=#0066CC;verticalAlign=top;verticalLabelPosition=bottom;labelPosition=center;align=center;html=1;outlineConnect=0;fillColor=#CCCCCC;strokeColor=#6881B3;gradientColor=none;gradientDirection=north;strokeWidth=2;shape=mxgraph.networks.pc;" vertex="1" parent="1">
          <mxGeometry x="392.56000000000006" y="936.56" width="70" height="50" as="geometry" />
        </mxCell>
        <mxCell id="jiWG33mtaCor1uyyTD07-83" style="edgeStyle=none;curved=1;rounded=0;orthogonalLoop=1;jettySize=auto;html=1;fontSize=12;startSize=8;endSize=8;" edge="1" parent="1" source="jiWG33mtaCor1uyyTD07-65" target="jiWG33mtaCor1uyyTD07-29">
          <mxGeometry relative="1" as="geometry" />
        </mxCell>
        <mxCell id="jiWG33mtaCor1uyyTD07-65" value="" style="fontColor=#0066CC;verticalAlign=top;verticalLabelPosition=bottom;labelPosition=center;align=center;html=1;outlineConnect=0;fillColor=#CCCCCC;strokeColor=#6881B3;gradientColor=none;gradientDirection=north;strokeWidth=2;shape=mxgraph.networks.pc;" vertex="1" parent="1">
          <mxGeometry x="392.56000000000006" y="1002.5" width="70" height="50" as="geometry" />
        </mxCell>
        <mxCell id="jiWG33mtaCor1uyyTD07-66" value="" style="fontColor=#0066CC;verticalAlign=top;verticalLabelPosition=bottom;labelPosition=center;align=center;html=1;outlineConnect=0;fillColor=#CCCCCC;strokeColor=#6881B3;gradientColor=none;gradientDirection=north;strokeWidth=2;shape=mxgraph.networks.pc;" vertex="1" parent="1">
          <mxGeometry x="392.56000000000006" y="1067.5" width="70" height="50" as="geometry" />
        </mxCell>
        <mxCell id="jiWG33mtaCor1uyyTD07-67" value="" style="fontColor=#0066CC;verticalAlign=top;verticalLabelPosition=bottom;labelPosition=center;align=center;html=1;outlineConnect=0;fillColor=#CCCCCC;strokeColor=#6881B3;gradientColor=none;gradientDirection=north;strokeWidth=2;shape=mxgraph.networks.pc;" vertex="1" parent="1">
          <mxGeometry x="392.56000000000006" y="1142.5" width="70" height="50" as="geometry" />
        </mxCell>
        <mxCell id="jiWG33mtaCor1uyyTD07-85" style="edgeStyle=none;curved=1;rounded=0;orthogonalLoop=1;jettySize=auto;html=1;fontSize=12;startSize=8;endSize=8;" edge="1" parent="1" source="jiWG33mtaCor1uyyTD07-68" target="jiWG33mtaCor1uyyTD07-29">
          <mxGeometry relative="1" as="geometry" />
        </mxCell>
        <mxCell id="jiWG33mtaCor1uyyTD07-68" value="" style="fontColor=#0066CC;verticalAlign=top;verticalLabelPosition=bottom;labelPosition=center;align=center;html=1;outlineConnect=0;fillColor=#CCCCCC;strokeColor=#6881B3;gradientColor=none;gradientDirection=north;strokeWidth=2;shape=mxgraph.networks.pc;" vertex="1" parent="1">
          <mxGeometry x="392.56000000000006" y="877.5" width="70" height="50" as="geometry" />
        </mxCell>
        <mxCell id="jiWG33mtaCor1uyyTD07-69" value="" style="fontColor=#0066CC;verticalAlign=top;verticalLabelPosition=bottom;labelPosition=center;align=center;html=1;outlineConnect=0;fillColor=#CCCCCC;strokeColor=#6881B3;gradientColor=none;gradientDirection=north;strokeWidth=2;shape=mxgraph.networks.pc;" vertex="1" parent="1">
          <mxGeometry x="30.000000000000043" y="814.0699999999999" width="70" height="50" as="geometry" />
        </mxCell>
        <mxCell id="jiWG33mtaCor1uyyTD07-70" style="edgeStyle=none;curved=1;rounded=0;orthogonalLoop=1;jettySize=auto;html=1;fontSize=12;startSize=8;endSize=8;entryX=0.5;entryY=0;entryDx=0;entryDy=0;entryPerimeter=0;" edge="1" parent="1" source="jiWG33mtaCor1uyyTD07-69" target="jiWG33mtaCor1uyyTD07-29">
          <mxGeometry relative="1" as="geometry" />
        </mxCell>
        <mxCell id="jiWG33mtaCor1uyyTD07-71" style="edgeStyle=none;curved=1;rounded=0;orthogonalLoop=1;jettySize=auto;html=1;fontSize=12;startSize=8;endSize=8;entryX=0.16;entryY=0.23;entryDx=0;entryDy=0;entryPerimeter=0;" edge="1" parent="1" source="jiWG33mtaCor1uyyTD07-63" target="jiWG33mtaCor1uyyTD07-29">
          <mxGeometry relative="1" as="geometry" />
        </mxCell>
        <mxCell id="jiWG33mtaCor1uyyTD07-81" style="edgeStyle=none;curved=1;rounded=0;orthogonalLoop=1;jettySize=auto;html=1;entryX=0.87;entryY=0.74;entryDx=0;entryDy=0;entryPerimeter=0;fontSize=12;startSize=8;endSize=8;" edge="1" parent="1" source="jiWG33mtaCor1uyyTD07-67" target="jiWG33mtaCor1uyyTD07-29">
          <mxGeometry relative="1" as="geometry" />
        </mxCell>
        <mxCell id="jiWG33mtaCor1uyyTD07-82" style="edgeStyle=none;curved=1;rounded=0;orthogonalLoop=1;jettySize=auto;html=1;entryX=0.98;entryY=0.5;entryDx=0;entryDy=0;entryPerimeter=0;fontSize=12;startSize=8;endSize=8;" edge="1" parent="1" source="jiWG33mtaCor1uyyTD07-66" target="jiWG33mtaCor1uyyTD07-29">
          <mxGeometry relative="1" as="geometry" />
        </mxCell>
        <mxCell id="jiWG33mtaCor1uyyTD07-86" value="" style="rounded=0;whiteSpace=wrap;html=1;fillColor=none;" vertex="1" parent="1">
          <mxGeometry x="654.87" y="760" width="499.82" height="560" as="geometry" />
        </mxCell>
        <mxCell id="jiWG33mtaCor1uyyTD07-87" value="" style="rounded=0;whiteSpace=wrap;html=1;fillColor=none;" vertex="1" parent="1">
          <mxGeometry x="1294.17" y="760" width="499.82" height="560" as="geometry" />
        </mxCell>
        <mxCell id="jiWG33mtaCor1uyyTD07-88" value="" style="shape=mxgraph.cisco.computers_and_peripherals.printer;html=1;pointerEvents=1;dashed=0;fillColor=#036897;strokeColor=#ffffff;strokeWidth=2;verticalLabelPosition=bottom;verticalAlign=top;align=center;outlineConnect=0;" vertex="1" parent="1">
          <mxGeometry x="395" y="827" width="91" height="34" as="geometry" />
        </mxCell>
        <mxCell id="jiWG33mtaCor1uyyTD07-89" style="edgeStyle=none;curved=1;rounded=0;orthogonalLoop=1;jettySize=auto;html=1;fontSize=12;startSize=8;endSize=8;exitX=0;exitY=0.5;exitDx=0;exitDy=0;exitPerimeter=0;" edge="1" parent="1" source="jiWG33mtaCor1uyyTD07-88" target="jiWG33mtaCor1uyyTD07-29">
          <mxGeometry relative="1" as="geometry" />
        </mxCell>
        <mxCell id="jiWG33mtaCor1uyyTD07-90" value="" style="shape=mxgraph.cisco.switches.workgroup_switch;sketch=0;html=1;pointerEvents=1;dashed=0;fillColor=#036897;strokeColor=#ffffff;strokeWidth=2;verticalLabelPosition=bottom;verticalAlign=top;align=center;outlineConnect=0;" vertex="1" parent="1">
          <mxGeometry x="840" y="986.56" width="86.23" height="54.06" as="geometry" />
        </mxCell>
        <mxCell id="jiWG33mtaCor1uyyTD07-111" style="edgeStyle=none;curved=1;rounded=0;orthogonalLoop=1;jettySize=auto;html=1;fontSize=12;startSize=8;endSize=8;" edge="1" parent="1" source="jiWG33mtaCor1uyyTD07-91" target="jiWG33mtaCor1uyyTD07-90">
          <mxGeometry relative="1" as="geometry" />
        </mxCell>
        <mxCell id="jiWG33mtaCor1uyyTD07-91" value="" style="fontColor=#0066CC;verticalAlign=top;verticalLabelPosition=bottom;labelPosition=center;align=center;html=1;outlineConnect=0;fillColor=#CCCCCC;strokeColor=#6881B3;gradientColor=none;gradientDirection=north;strokeWidth=2;shape=mxgraph.networks.pc;" vertex="1" parent="1">
          <mxGeometry x="1050" y="929.06" width="70" height="50" as="geometry" />
        </mxCell>
        <mxCell id="jiWG33mtaCor1uyyTD07-92" value="" style="fontColor=#0066CC;verticalAlign=top;verticalLabelPosition=bottom;labelPosition=center;align=center;html=1;outlineConnect=0;fillColor=#CCCCCC;strokeColor=#6881B3;gradientColor=none;gradientDirection=north;strokeWidth=2;shape=mxgraph.networks.pc;" vertex="1" parent="1">
          <mxGeometry x="1050" y="995" width="70" height="50" as="geometry" />
        </mxCell>
        <mxCell id="jiWG33mtaCor1uyyTD07-109" style="edgeStyle=none;curved=1;rounded=0;orthogonalLoop=1;jettySize=auto;html=1;fontSize=12;startSize=8;endSize=8;entryX=0.98;entryY=0.5;entryDx=0;entryDy=0;entryPerimeter=0;" edge="1" parent="1" source="jiWG33mtaCor1uyyTD07-93" target="jiWG33mtaCor1uyyTD07-90">
          <mxGeometry relative="1" as="geometry" />
        </mxCell>
        <mxCell id="jiWG33mtaCor1uyyTD07-93" value="" style="fontColor=#0066CC;verticalAlign=top;verticalLabelPosition=bottom;labelPosition=center;align=center;html=1;outlineConnect=0;fillColor=#CCCCCC;strokeColor=#6881B3;gradientColor=none;gradientDirection=north;strokeWidth=2;shape=mxgraph.networks.pc;" vertex="1" parent="1">
          <mxGeometry x="1050" y="1060" width="70" height="50" as="geometry" />
        </mxCell>
        <mxCell id="jiWG33mtaCor1uyyTD07-108" style="edgeStyle=none;curved=1;rounded=0;orthogonalLoop=1;jettySize=auto;html=1;fontSize=12;startSize=8;endSize=8;entryX=0.87;entryY=0.74;entryDx=0;entryDy=0;entryPerimeter=0;" edge="1" parent="1" source="jiWG33mtaCor1uyyTD07-94" target="jiWG33mtaCor1uyyTD07-90">
          <mxGeometry relative="1" as="geometry" />
        </mxCell>
        <mxCell id="jiWG33mtaCor1uyyTD07-94" value="" style="fontColor=#0066CC;verticalAlign=top;verticalLabelPosition=bottom;labelPosition=center;align=center;html=1;outlineConnect=0;fillColor=#CCCCCC;strokeColor=#6881B3;gradientColor=none;gradientDirection=north;strokeWidth=2;shape=mxgraph.networks.pc;" vertex="1" parent="1">
          <mxGeometry x="1050" y="1135" width="70" height="50" as="geometry" />
        </mxCell>
        <mxCell id="jiWG33mtaCor1uyyTD07-102" style="edgeStyle=none;curved=1;rounded=0;orthogonalLoop=1;jettySize=auto;html=1;fontSize=12;startSize=8;endSize=8;" edge="1" parent="1" source="jiWG33mtaCor1uyyTD07-95" target="jiWG33mtaCor1uyyTD07-90">
          <mxGeometry relative="1" as="geometry" />
        </mxCell>
        <mxCell id="jiWG33mtaCor1uyyTD07-95" value="" style="fontColor=#0066CC;verticalAlign=top;verticalLabelPosition=bottom;labelPosition=center;align=center;html=1;outlineConnect=0;fillColor=#CCCCCC;strokeColor=#6881B3;gradientColor=none;gradientDirection=north;strokeWidth=2;shape=mxgraph.networks.pc;" vertex="1" parent="1">
          <mxGeometry x="686.66" y="1205" width="70" height="50" as="geometry" />
        </mxCell>
        <mxCell id="jiWG33mtaCor1uyyTD07-104" style="edgeStyle=none;curved=1;rounded=0;orthogonalLoop=1;jettySize=auto;html=1;fontSize=12;startSize=8;endSize=8;" edge="1" parent="1" source="jiWG33mtaCor1uyyTD07-96" target="jiWG33mtaCor1uyyTD07-90">
          <mxGeometry relative="1" as="geometry" />
        </mxCell>
        <mxCell id="jiWG33mtaCor1uyyTD07-96" value="" style="fontColor=#0066CC;verticalAlign=top;verticalLabelPosition=bottom;labelPosition=center;align=center;html=1;outlineConnect=0;fillColor=#CCCCCC;strokeColor=#6881B3;gradientColor=none;gradientDirection=north;strokeWidth=2;shape=mxgraph.networks.pc;" vertex="1" parent="1">
          <mxGeometry x="786.66" y="1205" width="70" height="50" as="geometry" />
        </mxCell>
        <mxCell id="jiWG33mtaCor1uyyTD07-97" value="" style="fontColor=#0066CC;verticalAlign=top;verticalLabelPosition=bottom;labelPosition=center;align=center;html=1;outlineConnect=0;fillColor=#CCCCCC;strokeColor=#6881B3;gradientColor=none;gradientDirection=north;strokeWidth=2;shape=mxgraph.networks.pc;" vertex="1" parent="1">
          <mxGeometry x="876.66" y="1205" width="70" height="50" as="geometry" />
        </mxCell>
        <mxCell id="jiWG33mtaCor1uyyTD07-106" style="edgeStyle=none;curved=1;rounded=0;orthogonalLoop=1;jettySize=auto;html=1;fontSize=12;startSize=8;endSize=8;" edge="1" parent="1" source="jiWG33mtaCor1uyyTD07-98" target="jiWG33mtaCor1uyyTD07-90">
          <mxGeometry relative="1" as="geometry" />
        </mxCell>
        <mxCell id="jiWG33mtaCor1uyyTD07-98" value="" style="fontColor=#0066CC;verticalAlign=top;verticalLabelPosition=bottom;labelPosition=center;align=center;html=1;outlineConnect=0;fillColor=#CCCCCC;strokeColor=#6881B3;gradientColor=none;gradientDirection=north;strokeWidth=2;shape=mxgraph.networks.pc;" vertex="1" parent="1">
          <mxGeometry x="966.66" y="1205" width="70" height="50" as="geometry" />
        </mxCell>
        <mxCell id="jiWG33mtaCor1uyyTD07-107" style="edgeStyle=none;curved=1;rounded=0;orthogonalLoop=1;jettySize=auto;html=1;fontSize=12;startSize=8;endSize=8;" edge="1" parent="1" source="jiWG33mtaCor1uyyTD07-99" target="jiWG33mtaCor1uyyTD07-90">
          <mxGeometry relative="1" as="geometry" />
        </mxCell>
        <mxCell id="jiWG33mtaCor1uyyTD07-99" value="" style="fontColor=#0066CC;verticalAlign=top;verticalLabelPosition=bottom;labelPosition=center;align=center;html=1;outlineConnect=0;fillColor=#CCCCCC;strokeColor=#6881B3;gradientColor=none;gradientDirection=north;strokeWidth=2;shape=mxgraph.networks.pc;" vertex="1" parent="1">
          <mxGeometry x="1052.8899999999999" y="1205" width="70" height="50" as="geometry" />
        </mxCell>
        <mxCell id="jiWG33mtaCor1uyyTD07-112" style="edgeStyle=none;curved=1;rounded=0;orthogonalLoop=1;jettySize=auto;html=1;fontSize=12;startSize=8;endSize=8;" edge="1" parent="1" source="jiWG33mtaCor1uyyTD07-100" target="jiWG33mtaCor1uyyTD07-90">
          <mxGeometry relative="1" as="geometry" />
        </mxCell>
        <mxCell id="jiWG33mtaCor1uyyTD07-100" value="" style="fontColor=#0066CC;verticalAlign=top;verticalLabelPosition=bottom;labelPosition=center;align=center;html=1;outlineConnect=0;fillColor=#CCCCCC;strokeColor=#6881B3;gradientColor=none;gradientDirection=north;strokeWidth=2;shape=mxgraph.networks.pc;" vertex="1" parent="1">
          <mxGeometry x="1050" y="870" width="70" height="50" as="geometry" />
        </mxCell>
        <mxCell id="jiWG33mtaCor1uyyTD07-105" style="edgeStyle=none;curved=1;rounded=0;orthogonalLoop=1;jettySize=auto;html=1;entryX=0.5;entryY=0.98;entryDx=0;entryDy=0;entryPerimeter=0;fontSize=12;startSize=8;endSize=8;" edge="1" parent="1" source="jiWG33mtaCor1uyyTD07-97" target="jiWG33mtaCor1uyyTD07-90">
          <mxGeometry relative="1" as="geometry" />
        </mxCell>
        <mxCell id="jiWG33mtaCor1uyyTD07-110" style="edgeStyle=none;curved=1;rounded=0;orthogonalLoop=1;jettySize=auto;html=1;entryX=0.98;entryY=0.5;entryDx=0;entryDy=0;entryPerimeter=0;fontSize=12;startSize=8;endSize=8;" edge="1" parent="1" source="jiWG33mtaCor1uyyTD07-92" target="jiWG33mtaCor1uyyTD07-90">
          <mxGeometry relative="1" as="geometry" />
        </mxCell>
        <mxCell id="jiWG33mtaCor1uyyTD07-114" style="edgeStyle=none;curved=1;rounded=0;orthogonalLoop=1;jettySize=auto;html=1;fontSize=12;startSize=8;endSize=8;exitX=0;exitY=0.5;exitDx=0;exitDy=0;exitPerimeter=0;" edge="1" parent="1" source="jiWG33mtaCor1uyyTD07-113" target="jiWG33mtaCor1uyyTD07-90">
          <mxGeometry relative="1" as="geometry" />
        </mxCell>
        <mxCell id="jiWG33mtaCor1uyyTD07-113" value="" style="shape=mxgraph.cisco.computers_and_peripherals.printer;html=1;pointerEvents=1;dashed=0;fillColor=#036897;strokeColor=#ffffff;strokeWidth=2;verticalLabelPosition=bottom;verticalAlign=top;align=center;outlineConnect=0;" vertex="1" parent="1">
          <mxGeometry x="1050" y="814.06" width="91" height="34" as="geometry" />
        </mxCell>
        <mxCell id="jiWG33mtaCor1uyyTD07-115" value="" style="shape=mxgraph.cisco.switches.workgroup_switch;sketch=0;html=1;pointerEvents=1;dashed=0;fillColor=#036897;strokeColor=#ffffff;strokeWidth=2;verticalLabelPosition=bottom;verticalAlign=top;align=center;outlineConnect=0;" vertex="1" parent="1">
          <mxGeometry x="1490" y="979.06" width="86.23" height="54.06" as="geometry" />
        </mxCell>
        <mxCell id="jiWG33mtaCor1uyyTD07-116" style="edgeStyle=none;curved=1;rounded=0;orthogonalLoop=1;jettySize=auto;html=1;entryX=0.5;entryY=0;entryDx=0;entryDy=0;entryPerimeter=0;fontSize=12;startSize=8;endSize=8;exitX=1;exitY=0.5;exitDx=0;exitDy=0;exitPerimeter=0;" edge="1" parent="1" source="jiWG33mtaCor1uyyTD07-16" target="jiWG33mtaCor1uyyTD07-115">
          <mxGeometry relative="1" as="geometry" />
        </mxCell>
        <mxCell id="jiWG33mtaCor1uyyTD07-123" style="edgeStyle=none;curved=1;rounded=0;orthogonalLoop=1;jettySize=auto;html=1;fontSize=12;startSize=8;endSize=8;" edge="1" parent="1" source="jiWG33mtaCor1uyyTD07-117" target="jiWG33mtaCor1uyyTD07-115">
          <mxGeometry relative="1" as="geometry" />
        </mxCell>
        <mxCell id="jiWG33mtaCor1uyyTD07-117" value="" style="fontColor=#0066CC;verticalAlign=top;verticalLabelPosition=bottom;labelPosition=center;align=center;html=1;outlineConnect=0;fillColor=#CCCCCC;strokeColor=#6881B3;gradientColor=none;gradientDirection=north;strokeWidth=2;shape=mxgraph.networks.pc;" vertex="1" parent="1">
          <mxGeometry x="1696.1" y="929.06" width="70" height="50" as="geometry" />
        </mxCell>
        <mxCell id="jiWG33mtaCor1uyyTD07-124" style="edgeStyle=none;curved=1;rounded=0;orthogonalLoop=1;jettySize=auto;html=1;fontSize=12;startSize=8;endSize=8;" edge="1" parent="1" source="jiWG33mtaCor1uyyTD07-118" target="jiWG33mtaCor1uyyTD07-115">
          <mxGeometry relative="1" as="geometry" />
        </mxCell>
        <mxCell id="jiWG33mtaCor1uyyTD07-118" value="" style="fontColor=#0066CC;verticalAlign=top;verticalLabelPosition=bottom;labelPosition=center;align=center;html=1;outlineConnect=0;fillColor=#CCCCCC;strokeColor=#6881B3;gradientColor=none;gradientDirection=north;strokeWidth=2;shape=mxgraph.networks.pc;" vertex="1" parent="1">
          <mxGeometry x="1696.1" y="995" width="70" height="50" as="geometry" />
        </mxCell>
        <mxCell id="jiWG33mtaCor1uyyTD07-119" value="" style="fontColor=#0066CC;verticalAlign=top;verticalLabelPosition=bottom;labelPosition=center;align=center;html=1;outlineConnect=0;fillColor=#CCCCCC;strokeColor=#6881B3;gradientColor=none;gradientDirection=north;strokeWidth=2;shape=mxgraph.networks.pc;" vertex="1" parent="1">
          <mxGeometry x="1696.1" y="1060" width="70" height="50" as="geometry" />
        </mxCell>
        <mxCell id="jiWG33mtaCor1uyyTD07-120" value="" style="fontColor=#0066CC;verticalAlign=top;verticalLabelPosition=bottom;labelPosition=center;align=center;html=1;outlineConnect=0;fillColor=#CCCCCC;strokeColor=#6881B3;gradientColor=none;gradientDirection=north;strokeWidth=2;shape=mxgraph.networks.pc;" vertex="1" parent="1">
          <mxGeometry x="1696.1" y="1135" width="70" height="50" as="geometry" />
        </mxCell>
        <mxCell id="jiWG33mtaCor1uyyTD07-122" style="edgeStyle=none;curved=1;rounded=0;orthogonalLoop=1;jettySize=auto;html=1;fontSize=12;startSize=8;endSize=8;" edge="1" parent="1" source="jiWG33mtaCor1uyyTD07-121" target="jiWG33mtaCor1uyyTD07-115">
          <mxGeometry relative="1" as="geometry" />
        </mxCell>
        <mxCell id="jiWG33mtaCor1uyyTD07-121" value="" style="fontColor=#0066CC;verticalAlign=top;verticalLabelPosition=bottom;labelPosition=center;align=center;html=1;outlineConnect=0;fillColor=#CCCCCC;strokeColor=#6881B3;gradientColor=none;gradientDirection=north;strokeWidth=2;shape=mxgraph.networks.pc;" vertex="1" parent="1">
          <mxGeometry x="1696.1" y="870" width="70" height="50" as="geometry" />
        </mxCell>
        <mxCell id="jiWG33mtaCor1uyyTD07-125" style="edgeStyle=none;curved=1;rounded=0;orthogonalLoop=1;jettySize=auto;html=1;entryX=0.87;entryY=0.74;entryDx=0;entryDy=0;entryPerimeter=0;fontSize=12;startSize=8;endSize=8;" edge="1" parent="1" source="jiWG33mtaCor1uyyTD07-119" target="jiWG33mtaCor1uyyTD07-115">
          <mxGeometry relative="1" as="geometry" />
        </mxCell>
        <mxCell id="jiWG33mtaCor1uyyTD07-126" style="edgeStyle=none;curved=1;rounded=0;orthogonalLoop=1;jettySize=auto;html=1;entryX=0.637;entryY=1.036;entryDx=0;entryDy=0;entryPerimeter=0;fontSize=12;startSize=8;endSize=8;" edge="1" parent="1" source="jiWG33mtaCor1uyyTD07-120" target="jiWG33mtaCor1uyyTD07-115">
          <mxGeometry relative="1" as="geometry" />
        </mxCell>
        <mxCell id="jiWG33mtaCor1uyyTD07-128" value="IT&lt;span style=&quot;color: rgba(0, 0, 0, 0); font-family: monospace; font-size: 0px; text-align: start; text-wrap-mode: nowrap;&quot;&gt;%3CmxGraphModel%3E%3Croot%3E%3CmxCell%20id%3D%220%22%2F%3E%3CmxCell%20id%3D%221%22%20parent%3D%220%22%2F%3E%3CmxCell%20id%3D%222%22%20value%3D%22SALES%22%20style%3D%22text%3Bhtml%3D1%3Balign%3Dcenter%3BverticalAlign%3Dmiddle%3BwhiteSpace%3Dwrap%3Brounded%3D0%3BfontFamily%3DPoppins%3BfontSource%3Dhttps%253A%252F%252Ffonts.googleapis.com%252Fcss%253Ffamily%253DPoppins%3BfontSize%3D31%3B%22%20vertex%3D%221%22%20parent%3D%221%22%3E%3CmxGeometry%20x%3D%22340.383694478006%22%20y%3D%22770.0125%22%20width%3D%22174.35541717009153%22%20height%3D%2244.0625%22%20as%3D%22geometry%22%2F%3E%3C%2FmxCell%3E%3C%2Froot%3E%3C%2FmxGraphModel%3E&lt;/span&gt;" style="text;html=1;align=center;verticalAlign=middle;whiteSpace=wrap;rounded=0;fontFamily=Poppins;fontSource=https%3A%2F%2Ffonts.googleapis.com%2Fcss%3Ffamily%3DPoppins;fontSize=31;" vertex="1" parent="1">
          <mxGeometry x="612.303694478006" y="769.9925000000001" width="174.35541717009153" height="44.0625" as="geometry" />
        </mxCell>
        <mxCell id="jiWG33mtaCor1uyyTD07-129" value="HR" style="text;html=1;align=center;verticalAlign=middle;whiteSpace=wrap;rounded=0;fontFamily=Poppins;fontSource=https%3A%2F%2Ffonts.googleapis.com%2Fcss%3Ffamily%3DPoppins;fontSize=31;" vertex="1" parent="1">
          <mxGeometry x="1250.0036944780059" y="769.9925000000001" width="174.35541717009153" height="44.0625" as="geometry" />
        </mxCell>
        <mxCell id="jiWG33mtaCor1uyyTD07-130" value="VLAN 10" style="text;html=1;align=center;verticalAlign=middle;whiteSpace=wrap;rounded=0;fontFamily=Poppins;fontSource=https%3A%2F%2Ffonts.googleapis.com%2Fcss%3Ffamily%3DPoppins;fontSize=31;" vertex="1" parent="1">
          <mxGeometry x="-285.9463055219939" y="725.9525000000001" width="174.35541717009153" height="44.0625" as="geometry" />
        </mxCell>
        <mxCell id="jiWG33mtaCor1uyyTD07-131" value="VLAN 20" style="text;html=1;align=center;verticalAlign=middle;whiteSpace=wrap;rounded=0;fontFamily=Poppins;fontSource=https%3A%2F%2Ffonts.googleapis.com%2Fcss%3Ffamily%3DPoppins;fontSize=31;" vertex="1" parent="1">
          <mxGeometry x="340.38369447800613" y="725.9425000000001" width="174.35541717009153" height="44.0625" as="geometry" />
        </mxCell>
        <mxCell id="jiWG33mtaCor1uyyTD07-132" value="VLAN 30" style="text;html=1;align=center;verticalAlign=middle;whiteSpace=wrap;rounded=0;fontFamily=Poppins;fontSource=https%3A%2F%2Ffonts.googleapis.com%2Fcss%3Ffamily%3DPoppins;fontSize=31;" vertex="1" parent="1">
          <mxGeometry x="1000.7136944780061" y="725.9525000000001" width="174.35541717009153" height="44.0625" as="geometry" />
        </mxCell>
        <mxCell id="jiWG33mtaCor1uyyTD07-133" value="VLAN 40" style="text;html=1;align=center;verticalAlign=middle;whiteSpace=wrap;rounded=0;fontFamily=Poppins;fontSource=https%3A%2F%2Ffonts.googleapis.com%2Fcss%3Ffamily%3DPoppins;fontSize=31;" vertex="1" parent="1">
          <mxGeometry x="1620.003694478006" y="725.9425000000001" width="174.35541717009153" height="44.0625" as="geometry" />
        </mxCell>
        <mxCell id="jiWG33mtaCor1uyyTD07-138" value="VLAN 50" style="text;html=1;align=center;verticalAlign=middle;whiteSpace=wrap;rounded=0;fontFamily=Poppins;fontSource=https%3A%2F%2Ffonts.googleapis.com%2Fcss%3Ffamily%3DPoppins;fontSize=31;" vertex="1" parent="1">
          <mxGeometry x="-389.9963055219939" y="435.0625000000001" width="174.35541717009153" height="44.0625" as="geometry" />
        </mxCell>
        <mxCell id="jiWG33mtaCor1uyyTD07-139" value="VLAN 99" style="text;html=1;align=center;verticalAlign=middle;whiteSpace=wrap;rounded=0;fontFamily=Poppins;fontSource=https%3A%2F%2Ffonts.googleapis.com%2Fcss%3Ffamily%3DPoppins;fontSize=31;" vertex="1" parent="1">
          <mxGeometry x="306.9036944780061" y="401.0525000000001" width="174.35541717009153" height="44.0625" as="geometry" />
        </mxCell>
        <mxCell id="jiWG33mtaCor1uyyTD07-144" value="Core Switch" style="text;html=1;align=center;verticalAlign=middle;whiteSpace=wrap;rounded=0;fontFamily=Poppins;fontSource=https%3A%2F%2Ffonts.googleapis.com%2Fcss%3Ffamily%3DPoppins;fontSize=16;" vertex="1" parent="1">
          <mxGeometry x="-257" y="40" width="213.67" height="44.06" as="geometry" />
        </mxCell>
        <mxCell id="jiWG33mtaCor1uyyTD07-145" value="Distribution Switch" style="text;html=1;align=center;verticalAlign=middle;whiteSpace=wrap;rounded=0;fontFamily=Poppins;fontSource=https%3A%2F%2Ffonts.googleapis.com%2Fcss%3Ffamily%3DPoppins;fontSize=16;" vertex="1" parent="1">
          <mxGeometry x="-291.6200000000001" y="190" width="333.72" height="44.06" as="geometry" />
        </mxCell>
        <mxCell id="jiWG33mtaCor1uyyTD07-146" value="cat6 ethernet" style="text;html=1;align=center;verticalAlign=middle;whiteSpace=wrap;rounded=0;fontFamily=Poppins;fontSource=https%3A%2F%2Ffonts.googleapis.com%2Fcss%3Ffamily%3DPoppins;fontSize=25;" vertex="1" parent="1">
          <mxGeometry x="-130" y="460" width="213.67" height="44.06" as="geometry" />
        </mxCell>
        <mxCell id="jiWG33mtaCor1uyyTD07-147" value="fiber uplink" style="text;html=1;align=center;verticalAlign=middle;whiteSpace=wrap;rounded=0;fontFamily=Poppins;fontSource=https%3A%2F%2Ffonts.googleapis.com%2Fcss%3Ffamily%3DPoppins;fontSize=25;" vertex="1" parent="1">
          <mxGeometry x="472.99" y="504.06" width="213.67" height="44.06" as="geometry" />
        </mxCell>
        <mxCell id="jiWG33mtaCor1uyyTD07-148" value="Router with Firewall" style="text;html=1;align=center;verticalAlign=middle;whiteSpace=wrap;rounded=0;fontFamily=Poppins;fontSource=https%3A%2F%2Ffonts.googleapis.com%2Fcss%3Ffamily%3DPoppins;fontSize=16;" vertex="1" parent="1">
          <mxGeometry x="-335.67999999999995" y="262.03" width="421.84" height="44.06" as="geometry" />
        </mxCell>
        <mxCell id="jiWG33mtaCor1uyyTD07-149" value="ISP" style="text;html=1;align=center;verticalAlign=middle;whiteSpace=wrap;rounded=0;fontFamily=Poppins;fontSource=https%3A%2F%2Ffonts.googleapis.com%2Fcss%3Ffamily%3DPoppins;fontSize=31;" vertex="1" parent="1">
          <mxGeometry x="620.0036944780061" y="201.3625000000001" width="174.35541717009153" height="44.0625" as="geometry" />
        </mxCell>
        <mxCell id="jiWG33mtaCor1uyyTD07-151" value="VoIP" style="text;html=1;align=center;verticalAlign=middle;whiteSpace=wrap;rounded=0;fontFamily=Poppins;fontSource=https%3A%2F%2Ffonts.googleapis.com%2Fcss%3Ffamily%3DPoppins;fontSize=16;" vertex="1" parent="1">
          <mxGeometry x="-584" y="185.94000000000003" width="213.67" height="44.06" as="geometry" />
        </mxCell>
        <mxCell id="jiWG33mtaCor1uyyTD07-154" value="Printer" style="text;html=1;align=center;verticalAlign=middle;whiteSpace=wrap;rounded=0;fontFamily=Poppins;fontSource=https%3A%2F%2Ffonts.googleapis.com%2Fcss%3Ffamily%3DPoppins;fontSize=16;" vertex="1" parent="1">
          <mxGeometry x="-537.44" y="257.01000000000005" width="137.44" height="44.06" as="geometry" />
        </mxCell>
        <mxCell id="jiWG33mtaCor1uyyTD07-155" value="" style="html=1;verticalLabelPosition=bottom;align=center;labelBackgroundColor=#ffffff;verticalAlign=top;strokeWidth=2;strokeColor=#0080F0;shadow=0;dashed=0;shape=mxgraph.ios7.icons.locked;" vertex="1" parent="1">
          <mxGeometry x="-82" y="1270" width="24" height="30" as="geometry" />
        </mxCell>
        <mxCell id="jiWG33mtaCor1uyyTD07-156" value="" style="html=1;verticalLabelPosition=bottom;align=center;labelBackgroundColor=#ffffff;verticalAlign=top;strokeWidth=2;strokeColor=#0080F0;shadow=0;dashed=0;shape=mxgraph.ios7.icons.locked;" vertex="1" parent="1">
          <mxGeometry x="1212.43" y="1280" width="24" height="30" as="geometry" />
        </mxCell>
        <mxCell id="jiWG33mtaCor1uyyTD07-157" value="" style="shape=mxgraph.cisco.switches.workgroup_switch;sketch=0;html=1;pointerEvents=1;dashed=0;fillColor=#036897;strokeColor=#ffffff;strokeWidth=2;verticalLabelPosition=bottom;verticalAlign=top;align=center;outlineConnect=0;" vertex="1" parent="1">
          <mxGeometry x="-590" y="40" width="58.79" height="40" as="geometry" />
        </mxCell>
        <mxCell id="jiWG33mtaCor1uyyTD07-158" value="Workstation Switch" style="text;html=1;align=center;verticalAlign=middle;whiteSpace=wrap;rounded=0;fontFamily=Poppins;fontSource=https%3A%2F%2Ffonts.googleapis.com%2Fcss%3Ffamily%3DPoppins;fontSize=16;" vertex="1" parent="1">
          <mxGeometry x="-533.44" y="41.94" width="217.44" height="44.06" as="geometry" />
        </mxCell>
        <mxCell id="jiWG33mtaCor1uyyTD07-160" value="" style="shape=mxgraph.cisco.servers.fileserver;sketch=0;html=1;pointerEvents=1;dashed=0;fillColor=#036897;strokeColor=#ffffff;strokeWidth=2;verticalLabelPosition=bottom;verticalAlign=top;align=center;outlineConnect=0;" vertex="1" parent="1">
          <mxGeometry x="-580.6" y="90" width="40" height="75.1" as="geometry" />
        </mxCell>
        <mxCell id="jiWG33mtaCor1uyyTD07-161" value="File Server" style="text;html=1;align=center;verticalAlign=middle;whiteSpace=wrap;rounded=0;fontFamily=Poppins;fontSource=https%3A%2F%2Ffonts.googleapis.com%2Fcss%3Ffamily%3DPoppins;fontSize=16;" vertex="1" parent="1">
          <mxGeometry x="-570" y="104.07" width="220" height="44.06" as="geometry" />
        </mxCell>
        <mxCell id="jiWG33mtaCor1uyyTD07-163" value="" style="sketch=0;pointerEvents=1;shadow=0;dashed=0;html=1;strokeColor=none;fillColor=#505050;labelPosition=center;verticalLabelPosition=bottom;verticalAlign=top;outlineConnect=0;align=center;shape=mxgraph.office.devices.phone_voip;" vertex="1" parent="1">
          <mxGeometry x="-587.82" y="182.97" width="57.82" height="50" as="geometry" />
        </mxCell>
        <mxCell id="jiWG33mtaCor1uyyTD07-165" value="" style="shape=mxgraph.cisco.computers_and_peripherals.printer;html=1;pointerEvents=1;dashed=0;fillColor=#036897;strokeColor=#ffffff;strokeWidth=2;verticalLabelPosition=bottom;verticalAlign=top;align=center;outlineConnect=0;" vertex="1" parent="1">
          <mxGeometry x="-591" y="262.03999999999996" width="91" height="34" as="geometry" />
        </mxCell>
        <mxCell id="jiWG33mtaCor1uyyTD07-166" value="" style="shape=mxgraph.cisco.switches.layer_3_switch;sketch=0;html=1;pointerEvents=1;dashed=0;fillColor=#036897;strokeColor=#ffffff;strokeWidth=2;verticalLabelPosition=bottom;verticalAlign=top;align=center;outlineConnect=0;" vertex="1" parent="1">
          <mxGeometry x="-285.95" y="40" width="46.23" height="48.07" as="geometry" />
        </mxCell>
        <mxCell id="jiWG33mtaCor1uyyTD07-167" value="" style="fontColor=#0066CC;verticalAlign=top;verticalLabelPosition=bottom;labelPosition=center;align=center;html=1;outlineConnect=0;fillColor=#CCCCCC;strokeColor=#6881B3;gradientColor=none;gradientDirection=north;strokeWidth=2;shape=mxgraph.networks.pc;" vertex="1" parent="1">
          <mxGeometry x="-291.62" y="103.04999999999995" width="70" height="50" as="geometry" />
        </mxCell>
        <mxCell id="jiWG33mtaCor1uyyTD07-168" value="Computer" style="text;html=1;align=center;verticalAlign=middle;whiteSpace=wrap;rounded=0;fontFamily=Poppins;fontSource=https%3A%2F%2Ffonts.googleapis.com%2Fcss%3Ffamily%3DPoppins;fontSize=16;" vertex="1" parent="1">
          <mxGeometry x="-263" y="103.04999999999995" width="213.67" height="44.06" as="geometry" />
        </mxCell>
        <mxCell id="jiWG33mtaCor1uyyTD07-169" value="" style="shape=mxgraph.cisco.switches.layer_2_remote_switch;sketch=0;html=1;pointerEvents=1;dashed=0;fillColor=#036897;strokeColor=#ffffff;strokeWidth=2;verticalLabelPosition=bottom;verticalAlign=top;align=center;outlineConnect=0;" vertex="1" parent="1">
          <mxGeometry x="-300" y="190" width="70" height="42.04" as="geometry" />
        </mxCell>
        <mxCell id="jiWG33mtaCor1uyyTD07-170" value="" style="sketch=0;points=[[0.015,0.015,0],[0.985,0.015,0],[0.985,0.985,0],[0.015,0.985,0],[0.25,0,0],[0.5,0,0],[0.75,0,0],[1,0.25,0],[1,0.5,0],[1,0.75,0],[0.75,1,0],[0.5,1,0],[0.25,1,0],[0,0.75,0],[0,0.5,0],[0,0.25,0]];verticalLabelPosition=bottom;html=1;verticalAlign=top;aspect=fixed;align=center;pointerEvents=1;shape=mxgraph.cisco19.rect;prIcon=router_with_firewall2;fillColor=#FAFAFA;strokeColor=#005073;" vertex="1" parent="1">
          <mxGeometry x="-291.62" y="261.07" width="51.2" height="40" as="geometry" />
        </mxCell>
        <mxCell id="jiWG33mtaCor1uyyTD07-171" value="192.168.10.0/24" style="text;html=1;align=center;verticalAlign=middle;whiteSpace=wrap;rounded=0;fontFamily=Poppins;fontSource=https%3A%2F%2Ffonts.googleapis.com%2Fcss%3Ffamily%3DPoppins;fontSize=20;" vertex="1" parent="1">
          <mxGeometry x="-640" y="725.96" width="157.82" height="44.06" as="geometry" />
        </mxCell>
        <mxCell id="jiWG33mtaCor1uyyTD07-172" value="192.168.20.0/24" style="text;html=1;align=center;verticalAlign=middle;whiteSpace=wrap;rounded=0;fontFamily=Poppins;fontSource=https%3A%2F%2Ffonts.googleapis.com%2Fcss%3Ffamily%3DPoppins;fontSize=20;" vertex="1" parent="1">
          <mxGeometry x="38.50999999999999" y="725.96" width="157.82" height="44.06" as="geometry" />
        </mxCell>
        <mxCell id="jiWG33mtaCor1uyyTD07-173" value="192.168.30.0/24" style="text;html=1;align=center;verticalAlign=middle;whiteSpace=wrap;rounded=0;fontFamily=Poppins;fontSource=https%3A%2F%2Ffonts.googleapis.com%2Fcss%3Ffamily%3DPoppins;fontSize=20;" vertex="1" parent="1">
          <mxGeometry x="682.18" y="725.93" width="157.82" height="44.06" as="geometry" />
        </mxCell>
        <mxCell id="jiWG33mtaCor1uyyTD07-174" value="192.168.40.0/24" style="text;html=1;align=center;verticalAlign=middle;whiteSpace=wrap;rounded=0;fontFamily=Poppins;fontSource=https%3A%2F%2Ffonts.googleapis.com%2Fcss%3Ffamily%3DPoppins;fontSize=20;" vertex="1" parent="1">
          <mxGeometry x="1332.18" y="725.96" width="157.82" height="44.06" as="geometry" />
        </mxCell>
        <mxCell id="jiWG33mtaCor1uyyTD07-175" value="192.168.50.0/24" style="text;html=1;align=center;verticalAlign=middle;whiteSpace=wrap;rounded=0;fontFamily=Poppins;fontSource=https%3A%2F%2Ffonts.googleapis.com%2Fcss%3Ffamily%3DPoppins;fontSize=20;" vertex="1" parent="1">
          <mxGeometry x="-637.82" y="435.06" width="157.82" height="44.06" as="geometry" />
        </mxCell>
        <mxCell id="jiWG33mtaCor1uyyTD07-176" value="192.168.99.2" style="text;html=1;align=center;verticalAlign=middle;whiteSpace=wrap;rounded=0;fontFamily=Poppins;fontSource=https%3A%2F%2Ffonts.googleapis.com%2Fcss%3Ffamily%3DPoppins;fontSize=20;" vertex="1" parent="1">
          <mxGeometry x="311.85999999999984" y="435.06" width="157.82" height="44.06" as="geometry" />
        </mxCell>
        <mxCell id="jiWG33mtaCor1uyyTD07-177" value="192.168.50.10" style="text;html=1;align=center;verticalAlign=middle;whiteSpace=wrap;rounded=0;fontFamily=Poppins;fontSource=https%3A%2F%2Ffonts.googleapis.com%2Fcss%3Ffamily%3DPoppins;fontSize=15;" vertex="1" parent="1">
          <mxGeometry x="-637.8200000000002" y="661" width="157.82" height="44.06" as="geometry" />
        </mxCell>
        <mxCell id="jiWG33mtaCor1uyyTD07-178" value="192.168.50.20" style="text;html=1;align=center;verticalAlign=middle;whiteSpace=wrap;rounded=0;fontFamily=Poppins;fontSource=https%3A%2F%2Ffonts.googleapis.com%2Fcss%3Ffamily%3DPoppins;fontSize=15;" vertex="1" parent="1">
          <mxGeometry x="-414.82000000000016" y="655.94" width="157.82" height="44.06" as="geometry" />
        </mxCell>
        <mxCell id="jiWG33mtaCor1uyyTD07-179" value="192.168.20.100" style="text;html=1;align=center;verticalAlign=middle;whiteSpace=wrap;rounded=0;fontFamily=Poppins;fontSource=https%3A%2F%2Ffonts.googleapis.com%2Fcss%3Ffamily%3DPoppins;fontSize=16;" vertex="1" parent="1">
          <mxGeometry x="315.16999999999996" y="790" width="157.82" height="44.06" as="geometry" />
        </mxCell>
        <mxCell id="jiWG33mtaCor1uyyTD07-180" value="192.168.30.100" style="text;html=1;align=center;verticalAlign=middle;whiteSpace=wrap;rounded=0;fontFamily=Poppins;fontSource=https%3A%2F%2Ffonts.googleapis.com%2Fcss%3Ffamily%3DPoppins;fontSize=16;" vertex="1" parent="1">
          <mxGeometry x="980" y="783" width="157.82" height="44.06" as="geometry" />
        </mxCell>
      </root>
    </mxGraphModel>
  </diagram>
</mxfile>
